<mxfile host="www.draw.io" modified="2020-02-07T03:30:17.185Z" agent="Mozilla/5.0 (Macintosh; Intel Mac OS X 10_14_6) AppleWebKit/537.36 (KHTML, like Gecko) Chrome/79.0.3945.130 Safari/537.36" etag="7dFzK7N61NRmc_MoMsjb" version="12.6.5" type="github">
  <diagram id="n0-aE2CV48WGdlBObUwY" name="Page-1">
    <mxGraphModel dx="2026" dy="740" grid="1" gridSize="10" guides="1" tooltips="1" connect="1" arrows="1" fold="1" page="1" pageScale="1" pageWidth="827" pageHeight="1169" math="0" shadow="0">
      <root>
        <mxCell id="0"/>
        <mxCell id="1" parent="0"/>
        <mxCell id="_XB6uPv-uvpHdhC6MXnG-14" style="edgeStyle=orthogonalEdgeStyle;rounded=0;orthogonalLoop=1;jettySize=auto;html=1;exitX=0.5;exitY=1;exitDx=0;exitDy=0;" parent="1" source="_XB6uPv-uvpHdhC6MXnG-1" target="_XB6uPv-uvpHdhC6MXnG-4" edge="1">
          <mxGeometry relative="1" as="geometry"/>
        </mxCell>
        <mxCell id="_XB6uPv-uvpHdhC6MXnG-1" value="ZdalProxy" style="rounded=0;whiteSpace=wrap;html=1;fillColor=#80FF00;" parent="1" vertex="1">
          <mxGeometry x="70" y="130" width="120" height="60" as="geometry"/>
        </mxCell>
        <mxCell id="_XB6uPv-uvpHdhC6MXnG-15" style="edgeStyle=orthogonalEdgeStyle;rounded=0;orthogonalLoop=1;jettySize=auto;html=1;exitX=0.5;exitY=1;exitDx=0;exitDy=0;entryX=0.5;entryY=0;entryDx=0;entryDy=0;" parent="1" source="_XB6uPv-uvpHdhC6MXnG-2" target="_XB6uPv-uvpHdhC6MXnG-4" edge="1">
          <mxGeometry relative="1" as="geometry"/>
        </mxCell>
        <mxCell id="_XB6uPv-uvpHdhC6MXnG-2" value="ODPS" style="rounded=0;whiteSpace=wrap;html=1;fillColor=#80FF00;" parent="1" vertex="1">
          <mxGeometry x="210" y="130" width="120" height="60" as="geometry"/>
        </mxCell>
        <mxCell id="_XB6uPv-uvpHdhC6MXnG-16" style="edgeStyle=orthogonalEdgeStyle;rounded=0;orthogonalLoop=1;jettySize=auto;html=1;exitX=0.5;exitY=1;exitDx=0;exitDy=0;entryX=0.5;entryY=0;entryDx=0;entryDy=0;" parent="1" source="_XB6uPv-uvpHdhC6MXnG-3" target="_XB6uPv-uvpHdhC6MXnG-4" edge="1">
          <mxGeometry relative="1" as="geometry"/>
        </mxCell>
        <mxCell id="_XB6uPv-uvpHdhC6MXnG-3" value="DRC" style="rounded=0;whiteSpace=wrap;html=1;fillColor=#80FF00;" parent="1" vertex="1">
          <mxGeometry x="354" y="130" width="120" height="60" as="geometry"/>
        </mxCell>
        <mxCell id="QKCZEo7Kyf0H8Frp4uN5-11" style="edgeStyle=orthogonalEdgeStyle;rounded=0;orthogonalLoop=1;jettySize=auto;html=1;exitX=0;exitY=0.5;exitDx=0;exitDy=0;entryX=0.75;entryY=1;entryDx=0;entryDy=0;" edge="1" parent="1" source="_XB6uPv-uvpHdhC6MXnG-4" target="QKCZEo7Kyf0H8Frp4uN5-3">
          <mxGeometry relative="1" as="geometry"/>
        </mxCell>
        <mxCell id="_XB6uPv-uvpHdhC6MXnG-4" value="数据拉取" style="shape=process;whiteSpace=wrap;html=1;backgroundOutline=1;fillColor=#FF6666;" parent="1" vertex="1">
          <mxGeometry x="210" y="310" width="120" height="60" as="geometry"/>
        </mxCell>
        <mxCell id="_XB6uPv-uvpHdhC6MXnG-18" style="edgeStyle=orthogonalEdgeStyle;rounded=0;orthogonalLoop=1;jettySize=auto;html=1;exitX=0.5;exitY=1;exitDx=0;exitDy=0;entryX=0.5;entryY=0;entryDx=0;entryDy=0;fillColor=#FF6666;" parent="1" source="_XB6uPv-uvpHdhC6MXnG-4" target="_XB6uPv-uvpHdhC6MXnG-6" edge="1">
          <mxGeometry relative="1" as="geometry"/>
        </mxCell>
        <mxCell id="_XB6uPv-uvpHdhC6MXnG-22" style="edgeStyle=orthogonalEdgeStyle;rounded=0;orthogonalLoop=1;jettySize=auto;html=1;exitX=1;exitY=0.5;exitDx=0;exitDy=0;entryX=0;entryY=0.5;entryDx=0;entryDy=0;" parent="1" source="_XB6uPv-uvpHdhC6MXnG-5" target="_XB6uPv-uvpHdhC6MXnG-19" edge="1">
          <mxGeometry relative="1" as="geometry"/>
        </mxCell>
        <mxCell id="_XB6uPv-uvpHdhC6MXnG-23" style="edgeStyle=orthogonalEdgeStyle;rounded=0;orthogonalLoop=1;jettySize=auto;html=1;exitX=0;exitY=0.5;exitDx=0;exitDy=0;" parent="1" source="_XB6uPv-uvpHdhC6MXnG-5" target="_XB6uPv-uvpHdhC6MXnG-4" edge="1">
          <mxGeometry relative="1" as="geometry"/>
        </mxCell>
        <mxCell id="_XB6uPv-uvpHdhC6MXnG-5" value="数据模型" style="shape=hexagon;perimeter=hexagonPerimeter2;whiteSpace=wrap;html=1;fillColor=#80FF00;" parent="1" vertex="1">
          <mxGeometry x="510" y="300" width="120" height="80" as="geometry"/>
        </mxCell>
        <mxCell id="_XB6uPv-uvpHdhC6MXnG-10" style="edgeStyle=orthogonalEdgeStyle;rounded=0;orthogonalLoop=1;jettySize=auto;html=1;exitX=0.5;exitY=1;exitDx=0;exitDy=0;entryX=0.5;entryY=0;entryDx=0;entryDy=0;" parent="1" source="_XB6uPv-uvpHdhC6MXnG-6" target="_XB6uPv-uvpHdhC6MXnG-8" edge="1">
          <mxGeometry relative="1" as="geometry"/>
        </mxCell>
        <mxCell id="_XB6uPv-uvpHdhC6MXnG-11" style="edgeStyle=orthogonalEdgeStyle;rounded=0;orthogonalLoop=1;jettySize=auto;html=1;exitX=1;exitY=0.5;exitDx=0;exitDy=0;entryX=0;entryY=0.5;entryDx=0;entryDy=0;entryPerimeter=0;" parent="1" source="_XB6uPv-uvpHdhC6MXnG-6" target="_XB6uPv-uvpHdhC6MXnG-9" edge="1">
          <mxGeometry relative="1" as="geometry"/>
        </mxCell>
        <mxCell id="QKCZEo7Kyf0H8Frp4uN5-7" style="edgeStyle=orthogonalEdgeStyle;rounded=0;orthogonalLoop=1;jettySize=auto;html=1;exitX=0;exitY=0.5;exitDx=0;exitDy=0;" edge="1" parent="1" source="_XB6uPv-uvpHdhC6MXnG-6" target="QKCZEo7Kyf0H8Frp4uN5-4">
          <mxGeometry relative="1" as="geometry"/>
        </mxCell>
        <mxCell id="_XB6uPv-uvpHdhC6MXnG-6" value="数据存储" style="shape=process;whiteSpace=wrap;html=1;backgroundOutline=1;fillColor=#FF6666;" parent="1" vertex="1">
          <mxGeometry x="210" y="460" width="120" height="60" as="geometry"/>
        </mxCell>
        <mxCell id="_XB6uPv-uvpHdhC6MXnG-8" value="主存" style="shape=datastore;whiteSpace=wrap;html=1;" parent="1" vertex="1">
          <mxGeometry x="200" y="560" width="140" height="60" as="geometry"/>
        </mxCell>
        <mxCell id="_XB6uPv-uvpHdhC6MXnG-13" style="edgeStyle=orthogonalEdgeStyle;rounded=0;orthogonalLoop=1;jettySize=auto;html=1;exitX=1;exitY=0.5;exitDx=0;exitDy=0;exitPerimeter=0;entryX=0;entryY=0.5;entryDx=0;entryDy=0;entryPerimeter=0;" parent="1" source="_XB6uPv-uvpHdhC6MXnG-9" target="_XB6uPv-uvpHdhC6MXnG-12" edge="1">
          <mxGeometry relative="1" as="geometry"/>
        </mxCell>
        <mxCell id="_XB6uPv-uvpHdhC6MXnG-9" value="AntQ" style="strokeWidth=2;html=1;shape=mxgraph.flowchart.direct_data;whiteSpace=wrap;" parent="1" vertex="1">
          <mxGeometry x="520" y="460" width="100" height="60" as="geometry"/>
        </mxCell>
        <mxCell id="_XB6uPv-uvpHdhC6MXnG-12" value="缓存" style="strokeWidth=2;html=1;shape=mxgraph.flowchart.multi-document;whiteSpace=wrap;" parent="1" vertex="1">
          <mxGeometry x="826" y="460" width="88" height="60" as="geometry"/>
        </mxCell>
        <mxCell id="_XB6uPv-uvpHdhC6MXnG-20" style="edgeStyle=orthogonalEdgeStyle;rounded=0;orthogonalLoop=1;jettySize=auto;html=1;exitX=0.5;exitY=1;exitDx=0;exitDy=0;entryX=0.5;entryY=0;entryDx=0;entryDy=0;entryPerimeter=0;" parent="1" source="_XB6uPv-uvpHdhC6MXnG-19" target="_XB6uPv-uvpHdhC6MXnG-12" edge="1">
          <mxGeometry relative="1" as="geometry"/>
        </mxCell>
        <mxCell id="_XB6uPv-uvpHdhC6MXnG-21" style="edgeStyle=orthogonalEdgeStyle;rounded=0;orthogonalLoop=1;jettySize=auto;html=1;exitX=0.5;exitY=1;exitDx=0;exitDy=0;entryX=0.75;entryY=0;entryDx=0;entryDy=0;" parent="1" source="_XB6uPv-uvpHdhC6MXnG-19" target="_XB6uPv-uvpHdhC6MXnG-6" edge="1">
          <mxGeometry relative="1" as="geometry"/>
        </mxCell>
        <mxCell id="_XB6uPv-uvpHdhC6MXnG-19" value="索引路由" style="shape=process;whiteSpace=wrap;html=1;backgroundOutline=1;fillColor=#FF6666;" parent="1" vertex="1">
          <mxGeometry x="810" y="310" width="120" height="60" as="geometry"/>
        </mxCell>
        <mxCell id="_XB6uPv-uvpHdhC6MXnG-25" style="edgeStyle=orthogonalEdgeStyle;rounded=0;orthogonalLoop=1;jettySize=auto;html=1;exitX=0.5;exitY=1;exitDx=0;exitDy=0;entryX=0.5;entryY=0;entryDx=0;entryDy=0;" parent="1" source="_XB6uPv-uvpHdhC6MXnG-24" target="_XB6uPv-uvpHdhC6MXnG-19" edge="1">
          <mxGeometry relative="1" as="geometry"/>
        </mxCell>
        <mxCell id="_XB6uPv-uvpHdhC6MXnG-24" value="统一查询" style="shape=process;whiteSpace=wrap;html=1;backgroundOutline=1;fillColor=#80FF00;" parent="1" vertex="1">
          <mxGeometry x="810" y="140" width="120" height="60" as="geometry"/>
        </mxCell>
        <mxCell id="_XB6uPv-uvpHdhC6MXnG-26" value="1. 慢SQL&lt;br&gt;2. 数据过多&lt;br&gt;3. 执行计划不合理" style="shape=callout;whiteSpace=wrap;html=1;perimeter=calloutPerimeter;size=9;position=0.8;base=13;position2=1;align=left;" parent="1" vertex="1">
          <mxGeometry x="660" y="110" width="140" height="80" as="geometry"/>
        </mxCell>
        <mxCell id="_XB6uPv-uvpHdhC6MXnG-27" value="" style="shape=curlyBracket;whiteSpace=wrap;html=1;rounded=1;" parent="1" vertex="1">
          <mxGeometry x="930" y="280" width="20" height="120" as="geometry"/>
        </mxCell>
        <mxCell id="_XB6uPv-uvpHdhC6MXnG-28" value="最左前缀匹配" style="shape=process;whiteSpace=wrap;html=1;backgroundOutline=1;" parent="1" vertex="1">
          <mxGeometry x="950" y="240" width="120" height="60" as="geometry"/>
        </mxCell>
        <mxCell id="_XB6uPv-uvpHdhC6MXnG-29" value="Session机制" style="shape=process;whiteSpace=wrap;html=1;backgroundOutline=1;" parent="1" vertex="1">
          <mxGeometry x="940" y="140" width="120" height="60" as="geometry"/>
        </mxCell>
        <mxCell id="_XB6uPv-uvpHdhC6MXnG-30" value="图路径关联索引" style="shape=process;whiteSpace=wrap;html=1;backgroundOutline=1;" parent="1" vertex="1">
          <mxGeometry x="950" y="380" width="120" height="60" as="geometry"/>
        </mxCell>
        <mxCell id="_XB6uPv-uvpHdhC6MXnG-31" value="数据质量" style="shape=internalStorage;whiteSpace=wrap;html=1;backgroundOutline=1;" parent="1" vertex="1">
          <mxGeometry x="-100" y="650" width="160" height="80" as="geometry"/>
        </mxCell>
        <mxCell id="QKCZEo7Kyf0H8Frp4uN5-1" value="冒烟case" style="rounded=1;whiteSpace=wrap;html=1;fillColor=#FF6666;" vertex="1" parent="1">
          <mxGeometry x="510" y="660" width="120" height="60" as="geometry"/>
        </mxCell>
        <mxCell id="QKCZEo7Kyf0H8Frp4uN5-3" value="数据拉取补偿" style="shape=process;whiteSpace=wrap;html=1;backgroundOutline=1;" vertex="1" parent="1">
          <mxGeometry x="-80" y="130" width="120" height="60" as="geometry"/>
        </mxCell>
        <mxCell id="QKCZEo7Kyf0H8Frp4uN5-4" value="数据同步补偿" style="shape=process;whiteSpace=wrap;html=1;backgroundOutline=1;" vertex="1" parent="1">
          <mxGeometry x="-80" y="460" width="120" height="60" as="geometry"/>
        </mxCell>
        <mxCell id="QKCZEo7Kyf0H8Frp4uN5-8" value="" style="endArrow=none;dashed=1;html=1;entryX=0;entryY=0.5;entryDx=0;entryDy=0;exitX=1;exitY=0.5;exitDx=0;exitDy=0;" edge="1" parent="1" source="_XB6uPv-uvpHdhC6MXnG-31" target="QKCZEo7Kyf0H8Frp4uN5-1">
          <mxGeometry width="50" height="50" relative="1" as="geometry">
            <mxPoint x="-100" y="800" as="sourcePoint"/>
            <mxPoint x="-50" y="750" as="targetPoint"/>
          </mxGeometry>
        </mxCell>
        <mxCell id="QKCZEo7Kyf0H8Frp4uN5-9" value="" style="endArrow=none;dashed=1;html=1;entryX=0.5;entryY=0;entryDx=0;entryDy=0;exitX=0.5;exitY=1;exitDx=0;exitDy=0;" edge="1" parent="1" source="QKCZEo7Kyf0H8Frp4uN5-4" target="_XB6uPv-uvpHdhC6MXnG-31">
          <mxGeometry width="50" height="50" relative="1" as="geometry">
            <mxPoint x="70" y="700" as="sourcePoint"/>
            <mxPoint x="550" y="700" as="targetPoint"/>
          </mxGeometry>
        </mxCell>
        <mxCell id="QKCZEo7Kyf0H8Frp4uN5-10" value="" style="endArrow=none;dashed=1;html=1;entryX=0.5;entryY=1;entryDx=0;entryDy=0;exitX=0.5;exitY=0;exitDx=0;exitDy=0;" edge="1" parent="1" source="QKCZEo7Kyf0H8Frp4uN5-4" target="QKCZEo7Kyf0H8Frp4uN5-3">
          <mxGeometry width="50" height="50" relative="1" as="geometry">
            <mxPoint x="80" y="710" as="sourcePoint"/>
            <mxPoint x="560" y="710" as="targetPoint"/>
          </mxGeometry>
        </mxCell>
        <mxCell id="QKCZEo7Kyf0H8Frp4uN5-12" value="" style="endArrow=none;dashed=1;html=1;entryX=0.5;entryY=0;entryDx=0;entryDy=0;exitX=1;exitY=1;exitDx=0;exitDy=0;" edge="1" parent="1" source="_XB6uPv-uvpHdhC6MXnG-4" target="QKCZEo7Kyf0H8Frp4uN5-1">
          <mxGeometry width="50" height="50" relative="1" as="geometry">
            <mxPoint x="-100" y="800" as="sourcePoint"/>
            <mxPoint x="-50" y="750" as="targetPoint"/>
          </mxGeometry>
        </mxCell>
        <mxCell id="QKCZEo7Kyf0H8Frp4uN5-13" value="" style="endArrow=none;dashed=1;html=1;entryX=0.75;entryY=0;entryDx=0;entryDy=0;exitX=0;exitY=1;exitDx=0;exitDy=0;" edge="1" parent="1" source="_XB6uPv-uvpHdhC6MXnG-19" target="QKCZEo7Kyf0H8Frp4uN5-1">
          <mxGeometry width="50" height="50" relative="1" as="geometry">
            <mxPoint x="750" y="380" as="sourcePoint"/>
            <mxPoint x="610" y="670" as="targetPoint"/>
          </mxGeometry>
        </mxCell>
        <mxCell id="QKCZEo7Kyf0H8Frp4uN5-14" value="" style="endArrow=none;dashed=1;html=1;entryX=0.25;entryY=0;entryDx=0;entryDy=0;exitX=1;exitY=1;exitDx=0;exitDy=0;" edge="1" parent="1" source="_XB6uPv-uvpHdhC6MXnG-6" target="QKCZEo7Kyf0H8Frp4uN5-1">
          <mxGeometry width="50" height="50" relative="1" as="geometry">
            <mxPoint x="320" y="390" as="sourcePoint"/>
            <mxPoint x="620" y="680" as="targetPoint"/>
          </mxGeometry>
        </mxCell>
      </root>
    </mxGraphModel>
  </diagram>
</mxfile>
